<?xml version="1.0" encoding="utf-8"?>
<!-- Generator: Adobe Illustrator 23.0.0, SVG Export Plug-In . SVG Version: 6.00 Build 0)  -->
<svg version="1.1" id="Layer_1" xmlns="http://www.w3.org/2000/svg" xmlns:xlink="http://www.w3.org/1999/xlink" x="0px" y="0px"
	 viewBox="0 0 206.93 405.35" style="enable-background:new 0 0 206.93 405.35;" xml:space="preserve">
<path d="M184.25,0H22.68C10.15,0,0,10.15,0,22.68v360c0,12.52,10.15,22.68,22.68,22.68h31.18v-7.34c0-1.56,1.28-2.83,2.83-2.83h73.7
	c1.56,0,2.83,1.28,2.83,2.83v7.34h51.02c12.52,0,22.68-10.15,22.68-22.68v-360C206.93,10.15,196.78,0,184.25,0z M162.99,70.87
	c0,4.7-3.81,8.5-8.5,8.5h-29.76c-1.57,0-2.83,1.27-2.83,2.83c0,1.57-1.27,2.83-2.83,2.83H87.87c-1.57,0-2.83-1.27-2.83-2.83
	c0-1.57-1.27-2.83-2.83-2.83H52.44c-4.7,0-8.5-3.81-8.5-8.5V51.02c0-4.7,3.81-8.5,8.5-8.5H82.2c1.57,0,2.83-1.27,2.83-2.83
	c0-1.57,1.27-2.83,2.83-2.83h31.18c1.57,0,2.83,1.27,2.83,2.83c0,1.57,1.27,2.83,2.83,2.83h29.76c4.7,0,8.5,3.81,8.5,8.5V70.87z"/>
</svg>
